<svg xmlns="http://www.w3.org/2000/svg" viewBox="0 0 800 450" width="1600" height="900" role="img" aria-label="Mejores vendedores por ingresos, informes Odoo">
  <rect width="800" height="450" fill="#ffffff"/>
  <text x="24" y="42" fill="#0f766e" font-family="system-ui, Segoe UI, sans-serif" font-size="18" font-weight="700">Mejores vendedores por ingresos</text>
  <g font-family="system-ui, sans-serif" font-size="10" fill="#64748b" text-anchor="end">
    <text x="52" y="88">3,000</text>
    <text x="52" y="128">2,500</text>
    <text x="52" y="168">2,000</text>
    <text x="52" y="208">1,500</text>
    <text x="52" y="248">1,000</text>
    <text x="52" y="288">500</text>
    <text x="52" y="328">0</text>
  </g>
  <g stroke="#e2e8f0" stroke-width="1">
    <line x1="60" y1="80" x2="780" y2="80"/>
    <line x1="60" y1="120" x2="780" y2="120"/>
    <line x1="60" y1="160" x2="780" y2="160"/>
    <line x1="60" y1="200" x2="780" y2="200"/>
    <line x1="60" y1="240" x2="780" y2="240"/>
    <line x1="60" y1="280" x2="780" y2="280"/>
    <line x1="60" y1="320" x2="780" y2="320"/>
  </g>
  <g fill="#38bdf8">
    <rect x="64" y="92" width="40" height="228" rx="2"/>
    <rect x="108" y="168" width="40" height="152" rx="2"/>
    <rect x="152" y="188" width="40" height="132" rx="2"/>
    <rect x="196" y="248" width="40" height="72" rx="2"/>
    <rect x="240" y="268" width="40" height="52" rx="2"/>
    <rect x="284" y="288" width="40" height="32" rx="2"/>
    <rect x="328" y="300" width="40" height="20" rx="2"/>
    <rect x="372" y="300" width="40" height="20" rx="2"/>
    <rect x="416" y="308" width="40" height="12" rx="2"/>
    <rect x="460" y="312" width="40" height="8" rx="2"/>
    <rect x="504" y="314" width="40" height="6" rx="2"/>
    <rect x="548" y="316" width="40" height="4" rx="2"/>
    <rect x="592" y="318" width="40" height="2" rx="2"/>
    <rect x="636" y="318" width="40" height="2" rx="2"/>
    <rect x="680" y="319" width="40" height="1" rx="0"/>
    <rect x="724" y="319" width="40" height="1" rx="0"/>
  </g>
  <g font-family="system-ui, sans-serif" font-size="7" fill="#475569" text-anchor="start">
    <text x="58" y="360" transform="rotate(-35 58 360)">Prod. 1</text>
    <text x="102" y="360" transform="rotate(-35 102 360)">Prod. 2</text>
    <text x="146" y="360" transform="rotate(-35 146 360)">Prod. 3</text>
    <text x="190" y="360" transform="rotate(-35 190 360)">...</text>
    <text x="234" y="360" transform="rotate(-35 234 360)">...</text>
    <text x="278" y="360" transform="rotate(-35 278 360)">...</text>
    <text x="322" y="360" transform="rotate(-35 322 360)">...</text>
    <text x="366" y="360" transform="rotate(-35 366 360)">...</text>
    <text x="410" y="360" transform="rotate(-35 410 360)">...</text>
    <text x="454" y="360" transform="rotate(-35 454 360)">...</text>
    <text x="498" y="360" transform="rotate(-35 498 360)">...</text>
    <text x="542" y="360" transform="rotate(-35 542 360)">...</text>
    <text x="586" y="360" transform="rotate(-35 586 360)">...</text>
    <text x="630" y="360" transform="rotate(-35 630 360)">...</text>
    <text x="674" y="360" transform="rotate(-35 674 360)">...</text>
    <text x="718" y="360" transform="rotate(-35 718 360)">Ninguno</text>
  </g>
</svg>
