<svg xmlns="http://www.w3.org/2000/svg" viewBox="0 0 960 540" width="960" height="540" role="img" aria-label="Crecimiento del negocio con ERP escalable y roles">
  <defs>
    <linearGradient id="bg4" x1="50%" y1="0%" x2="50%" y2="100%">
      <stop offset="0%" stop-color="#111827"/>
      <stop offset="100%" stop-color="#0b1220"/>
    </linearGradient>
    <radialGradient id="node4" cx="50%" cy="50%" r="50%">
      <stop offset="0%" stop-color="#22c55e"/>
      <stop offset="100%" stop-color="#047857"/>
    </radialGradient>
  </defs>
  <rect width="960" height="540" fill="url(#bg4)"/>
  <!-- tree / network -->
  <g stroke="#334155" stroke-width="1.5" fill="none" opacity="0.8">
    <path d="M480 100v80"/>
    <path d="M480 180 L280 260"/><path d="M480 180 L480 260"/><path d="M480 180 L680 260"/>
    <path d="M280 260 L180 360"/><path d="M280 260 L280 380"/><path d="M280 260 L380 360"/>
    <path d="M480 260 L400 380"/><path d="M480 260 L480 400"/><path d="M480 260 L560 380"/>
    <path d="M680 260 L580 360"/><path d="M680 260 L680 380"/><path d="M680 260 L780 360"/>
  </g>
  <circle cx="480" cy="100" r="28" fill="url(#node4)" stroke="#0f172a" stroke-width="3"/>
  <text x="480" y="106" text-anchor="middle" fill="#fff" font-family="system-ui,sans-serif" font-size="11" font-weight="700">HQ</text>
  <g font-family="system-ui,Segoe UI,sans-serif">
    <circle cx="280" cy="260" r="22" fill="#1e293b" stroke="#00a85c" stroke-width="2"/>
    <text x="280" y="265" text-anchor="middle" fill="#e2e8f0" font-size="9" font-weight="600">Suc. A</text>
    <circle cx="480" cy="260" r="22" fill="#1e293b" stroke="#00a85c" stroke-width="2"/>
    <text x="480" y="265" text-anchor="middle" fill="#e2e8f0" font-size="9" font-weight="600">Ops</text>
    <circle cx="680" cy="260" r="22" fill="#1e293b" stroke="#00a85c" stroke-width="2"/>
    <text x="680" y="265" text-anchor="middle" fill="#e2e8f0" font-size="9" font-weight="600">Suc. B</text>
    <rect x="150" y="350" width="88" height="44" rx="10" fill="#162032" stroke="#475569"/>
    <text x="194" y="372" text-anchor="middle" fill="#94a3b8" font-size="8">Ventas</text>
    <text x="194" y="386" text-anchor="middle" fill="#64748b" font-size="7">Rol</text>
    <rect x="436" y="390" width="88" height="44" rx="10" fill="#162032" stroke="#475569"/>
    <text x="480" y="412" text-anchor="middle" fill="#94a3b8" font-size="8">Admin</text>
    <text x="480" y="426" text-anchor="middle" fill="#64748b" font-size="7">Rol</text>
    <rect x="722" y="350" width="88" height="44" rx="10" fill="#162032" stroke="#475569"/>
    <text x="766" y="372" text-anchor="middle" fill="#94a3b8" font-size="8">Bodega</text>
    <text x="766" y="386" text-anchor="middle" fill="#64748b" font-size="7">Rol</text>
  </g>
  <text x="480" y="500" text-anchor="middle" fill="#475569" font-family="system-ui,sans-serif" font-size="10" letter-spacing="0.05em">ESCALA SIN DUPLICAR PROCESOS</text>
</svg>
