<svg xmlns="http://www.w3.org/2000/svg" viewBox="0 0 960 540" width="960" height="540" role="img" aria-label="Automatizacion de flujos y aprobaciones en ERP">
  <defs>
    <linearGradient id="bg2" x1="0%" y1="0%" x2="0%" y2="100%">
      <stop offset="0%" stop-color="#0f172a"/>
      <stop offset="100%" stop-color="#0b1220"/>
    </linearGradient>
    <linearGradient id="acc2" x1="0%" y1="0%" x2="100%" y2="0%">
      <stop offset="0%" stop-color="#22c55e"/>
      <stop offset="100%" stop-color="#00a85c"/>
    </linearGradient>
  </defs>
  <rect width="960" height="540" fill="url(#bg2)"/>
  <g opacity="0.2" fill="none" stroke="#334155" stroke-width="1">
    <circle cx="480" cy="270" r="200"/><circle cx="480" cy="270" r="140"/><circle cx="480" cy="270" r="80"/>
  </g>
  <!-- workflow left to right -->
  <g font-family="system-ui,Segoe UI,sans-serif">
    <rect x="100" y="220" width="120" height="100" rx="14" fill="#1e293b" stroke="#475569" stroke-width="1"/>
    <text x="160" y="258" text-anchor="middle" fill="#e2e8f0" font-size="11" font-weight="600">Disparador</text>
    <text x="160" y="278" text-anchor="middle" fill="#64748b" font-size="9">Evento / regla</text>
    <path d="M220 270h60" stroke="url(#acc2)" stroke-width="3" stroke-linecap="round"/>
    <polygon points="285,270 275,265 275,275" fill="#22c55e"/>
    <rect x="290" y="200" width="160" height="140" rx="16" fill="#162032" stroke="#00a85c" stroke-width="2"/>
    <text x="370" y="238" text-anchor="middle" fill="#f1f5f9" font-size="12" font-weight="700">Motor de reglas</text>
    <rect x="310" y="252" width="120" height="22" rx="6" fill="#0f172a" stroke="#334155"/>
    <rect x="314" y="256" width="72" height="14" rx="3" fill="url(#acc2)" opacity="0.85"/>
    <rect x="310" y="284" width="120" height="22" rx="6" fill="#0f172a" stroke="#334155"/>
    <rect x="314" y="288" width="48" height="14" rx="3" fill="#334155"/>
    <text x="370" y="330" text-anchor="middle" fill="#94a3b8" font-size="9">Aprobaciones</text>
    <path d="M450 270h50" stroke="url(#acc2)" stroke-width="3" stroke-linecap="round"/>
    <polygon points="505,270 495,265 495,275" fill="#22c55e"/>
    <rect x="510" y="215" width="130" height="110" rx="14" fill="#1e293b" stroke="#475569"/>
    <text x="575" y="255" text-anchor="middle" fill="#e2e8f0" font-size="11" font-weight="600">Acciones</text>
    <path d="M545 275l8 8 16-16" stroke="#22c55e" stroke-width="2.5" fill="none" stroke-linecap="round" stroke-linejoin="round"/>
    <text x="575" y="298" text-anchor="middle" fill="#64748b" font-size="9">Email / tarea</text>
    <path d="M640 270h60" stroke="url(#acc2)" stroke-width="3" stroke-linecap="round"/>
    <polygon points="705,270 695,265 695,275" fill="#22c55e"/>
    <rect x="710" y="225" width="150" height="90" rx="14" fill="#1e293b" stroke="#00a85c" stroke-width="1.5"/>
    <text x="785" y="265" text-anchor="middle" fill="#f1f5f9" font-size="11" font-weight="600">Registro</text>
    <text x="785" y="288" text-anchor="middle" fill="#64748b" font-size="9">Auditable</text>
  </g>
  <text x="480" y="420" text-anchor="middle" fill="#475569" font-family="system-ui,sans-serif" font-size="10" letter-spacing="0.06em">AUTOMATIZACI&#211;N</text>
</svg>
